<svg width="538.6" height="538.6" xmlns="http://www.w3.org/2000/svg">

 <g>
  <title>background</title>
  <rect fill="none" id="canvas_background" height="402" width="582" y="-1" x="-1"/>
 </g>
 <g>
  <title>Layer 1</title>
  <g id="svg_1">
   <path fill="#1975aa" id="svg_2" d="m501.2,218.5c0,2 -0.7,4.1 -2,6.3c-1.3,2.3 -3.1,4.7 -5.4,7.3l-102.1,99.6l23.9,140.6c0,0.7 0.1,1.5 0.2,2.4c0.2,1 0.2,2.1 0.2,3.4c0,2 -0.2,3.7 -0.7,5.4c-0.5,1.6 -1.2,3.1 -2.2,4.4c-1,1.6 -2.2,2.8 -3.7,3.4c-1.5,0.6 -3.2,1 -5.1,1c-1.6,0 -3.4,-0.3 -5.4,-1c-2,-0.7 -3.9,-1.5 -5.9,-2.4l-126.5,-66.4l-126.2,66.5c-2,1 -3.9,1.8 -5.9,2.4c-2,0.6 -3.7,1 -5.4,1c-2,0 -3.7,-0.3 -5.1,-1c-1.5,-0.7 -2.7,-1.8 -3.7,-3.4c-1,-1.3 -1.7,-2.8 -2.2,-4.4c-0.5,-1.6 -0.7,-3.4 -0.7,-5.4c0,-0.6 0,-1.5 0,-2.4s0.2,-2.1 0.5,-3.4l23.9,-140.6l-102.4,-99.6c-2.3,-2.6 -4,-5 -5.1,-7.3c-1.1,-2.3 -1.7,-4.4 -1.7,-6.3c0,-3.6 1.3,-6.4 3.9,-8.5c2.6,-2.1 6.5,-3.7 11.7,-4.6l141.6,-20.5l63.5,-127.9c1.6,-3.9 3.6,-6.8 5.9,-8.8c2.3,-2 4.9,-2.9 7.8,-2.9s5.5,1 7.8,2.9c2.3,2 4.2,4.9 5.9,8.8l63.5,127.9l141.6,20.5c5.2,1 9.1,2.5 11.7,4.6c2.5,2 3.8,4.8 3.8,8.4z"/>
  </g>
 </g>
</svg>